<svg width="22" height="22" viewBox="0 0 14 16" fill="none" xmlns="http://www.w3.org/2000/svg">
<path d="M13.0731 11.106C12.4896 10.3965 11.6906 9.3915 11.6906 8.366V5.101C11.6906 2.2885 9.58708 0 6.89858 0C4.20958 0 2.12258 2.2885 2.12258 5.101V8.366C2.12258 9.374 1.25558 10.3265 0.706078 11.066C0.211578 11.73 -0.178922 12.255 0.0850783 12.7795C0.316578 13.241 0.897078 13.3 1.37658 13.3H4.24158C4.24258 14.772 5.43608 15.9655 6.90808 15.9655C8.38008 15.9655 9.57458 14.7725 9.57508 13.3H12.5071C12.8121 13.3 13.5251 13.3 13.7706 12.781C14.0181 12.256 13.6221 11.7735 13.0731 11.106ZM6.90758 14.918C6.01358 14.918 5.28808 14.194 5.28708 13.3005H8.52808C8.52658 14.194 7.80208 14.918 6.90758 14.918ZM12.5071 12.2355H1.37608C1.29958 12.2355 1.23558 12.233 1.18308 12.2295C1.28608 12.07 1.43708 11.866 1.56058 11.7005C2.16958 10.882 3.18808 9.726 3.18808 8.366V5.101C3.18808 2.875 4.79808 1.0645 6.89958 1.0645C9.00108 1.0645 10.6271 2.8755 10.6271 5.101V8.366C10.6271 9.7725 11.5661 10.948 12.2516 11.782C12.3671 11.9225 12.5051 12.0905 12.6126 12.2345C12.5806 12.2355 12.5456 12.236 12.5081 12.236L12.5071 12.2355Z" fill="white"/>
</svg>
