<svg width="16" height="16" viewBox="0 0 16 16" fill="none" xmlns="http://www.w3.org/2000/svg">
<g clip-path="url(#clip0_124_4)">
<path d="M8 0C3.58875 0 0 3.58881 0 8C0 12.4112 3.58875 16 8 16C12.4113 16 16 12.4112 16 8C16 3.58881 12.4113 0 8 0ZM8 14.4516C4.44259 14.4516 1.54838 11.5574 1.54838 8C1.54838 4.44256 4.44259 1.54838 8 1.54838C11.5574 1.54838 14.4516 4.44259 14.4516 8C14.4516 11.5574 11.5574 14.4516 8 14.4516Z" fill="black"/>
<path d="M11.1021 5.99282L10.0073 4.89795L7.99998 6.90523L5.9927 4.89795L4.89783 5.99282L6.90511 8.00011L4.89783 10.0074L5.9927 11.1023L7.99998 9.09498L10.0073 11.1023L11.1021 10.0074L9.09486 8.00011L11.1021 5.99282Z" fill="black"/>
</g>
<defs>
<clipPath id="clip0_124_4">
<rect width="16" height="16" fill="white"/>
</clipPath>
</defs>
</svg>
