<svg width="22" height="22" viewBox="0 0 16 16" fill="none" xmlns="http://www.w3.org/2000/svg">
<path d="M9.75332 1.67016C7.52497 -0.55672 3.89964 -0.55672 1.67129 1.67016C-0.557095 3.89704 -0.557095 7.52036 1.67129 9.74724C3.89964 11.9741 7.52497 11.9741 9.75332 9.74724C11.9817 7.52036 11.9817 3.89704 9.75332 1.67016ZM8.95983 8.95427C7.16642 10.7461 4.25819 10.7461 2.46478 8.95392C0.671374 7.1617 0.671374 4.25538 2.46478 2.4635C4.25819 0.671282 7.16608 0.671282 8.95949 2.4635C10.7529 4.25573 10.7532 7.1617 8.95983 8.95427Z" fill="white"/>
<path d="M3.18153 3.5166C2.26352 4.69551 2.18709 6.31757 2.9526 7.56979C3.01129 7.66626 3.13716 7.69629 3.23335 7.63798C3.32919 7.57898 3.35959 7.45351 3.30089 7.35742C2.62338 6.24942 2.69093 4.80935 3.50318 3.76754C3.57279 3.67888 3.55675 3.55072 3.46769 3.48147C3.37904 3.41229 3.25077 3.42797 3.18153 3.5166Z" fill="white"/>
<path d="M15.5845 13.9913L11.4369 9.95383C11.21 9.73289 10.8477 9.73564 10.6236 9.95927L9.96587 10.6166C9.7421 10.8402 9.73966 11.2022 9.96109 11.4286L14.0009 15.5735C14.4496 16.1149 15.1124 16.1469 15.6244 15.6349C16.1371 15.1235 16.1259 14.4396 15.5845 13.9913Z" fill="white"/>
</svg>
