<svg width="22" height="22" viewBox="0 0 16 16" fill="none" xmlns="http://www.w3.org/2000/svg">
<path fill-rule="evenodd" clip-rule="evenodd" d="M13.25 14.4H2.75054C2.18543 14.4 1.76812 13.8424 1.98126 13.3296C2.97021 10.9584 5.29355 9.59999 7.99988 9.59999C10.707 9.59999 13.0304 10.9584 14.0193 13.3296C14.2325 13.8424 13.8152 14.4 13.25 14.4ZM4.73333 4.79999C4.73333 3.03519 6.1992 1.59999 7.99988 1.59999C9.80138 1.59999 11.2664 3.03519 11.2664 4.79999C11.2664 6.56479 9.80138 7.99999 7.99988 7.99999C6.1992 7.99999 4.73333 6.56479 4.73333 4.79999ZM15.9645 14.1088C15.3708 11.4216 13.5138 9.43837 11.0696 8.53837C12.3648 7.51677 13.1202 5.86474 12.8425 4.05594C12.5208 1.95754 10.7389 0.278381 8.58786 0.0335815C5.61857 -0.304819 3.10006 1.95919 3.10006 4.79999C3.10006 6.31199 3.81543 7.65917 4.93096 8.53837C2.48595 9.43837 0.629731 11.4216 0.0352192 14.1088C-0.180373 15.0856 0.623199 16 1.64318 16H14.3566C15.3774 16 16.1809 15.0856 15.9645 14.1088Z" fill="white"/>
</svg>
