<svg width="22" height="22" viewBox="0 0 24 22" fill="none" xmlns="http://www.w3.org/2000/svg">
<path d="M8.00698 7.21066L10.155 11.6652L15.0395 12.3912L11.502 15.9197L11.621 16.6277L12.3285 20.8492L8.00648 18.5247L3.68498 20.8507L4.39248 16.6287L4.51098 15.9207L0.974479 12.3912L5.85848 11.6652L6.17948 11.0007L8.00698 7.21066ZM8.00648 6.24316C7.55848 6.24316 7.15048 6.49566 6.95998 6.89116L5.14898 10.6512L0.981479 11.2707C0.553479 11.3347 0.197979 11.6272 0.059979 12.0267C-0.078021 12.4277 0.026479 12.8687 0.328479 13.1697L3.38148 16.2197L2.67298 20.4487C2.60148 20.8747 2.78598 21.3022 3.14748 21.5517C3.34598 21.6882 3.57948 21.7572 3.81348 21.7572C4.00598 21.7572 4.19848 21.7107 4.37298 21.6167L8.00598 19.6607L11.639 21.6167C11.8135 21.7102 12.0065 21.7572 12.198 21.7572C12.432 21.7572 12.665 21.6882 12.8645 21.5517C13.2255 21.3027 13.41 20.8752 13.338 20.4487L12.6295 16.2197L15.6845 13.1697C15.987 12.8692 16.0905 12.4272 15.9525 12.0267C15.8145 11.6262 15.4585 11.3342 15.031 11.2707L10.8645 10.6512L9.05248 6.89116C8.86348 6.49566 8.45498 6.24366 8.00598 6.24366L8.00648 6.24316Z" fill="white"/>
<circle cx="17.007" cy="6" r="5.5" fill="#FD5959" stroke="#EDEDED"/>
<path d="M18.2267 8H16.8561V5.52881C16.8561 5.48324 16.8561 5.40007 16.8561 5.2793C16.8561 5.15625 16.8572 5.02067 16.8595 4.87256C16.8641 4.72445 16.8698 4.59115 16.8766 4.47266C16.8173 4.54329 16.7615 4.60368 16.7091 4.65381C16.659 4.70394 16.61 4.75065 16.5621 4.79395L15.9948 5.26221L15.2941 4.40088L17.0099 3.00293H18.2267V8Z" fill="white"/>
</svg>
