<svg width="22" height="22" viewBox="0 0 16 12" fill="none" xmlns="http://www.w3.org/2000/svg">
<path d="M2.48305 6.67638H10.909C11.3106 6.67638 11.6363 6.35075 11.6363 5.94911C11.6363 5.54746 11.3106 5.22183 10.909 5.22183H2.48305L3.42337 4.28157C3.70739 3.99759 3.70739 3.53708 3.42337 3.25306C3.13944 2.96903 2.67893 2.96903 2.39486 3.25306L0.213188 5.43473C0.196315 5.45155 0.180412 5.46915 0.165285 5.48758C0.1616 5.49209 0.158448 5.49694 0.154861 5.50154C0.143758 5.51565 0.132848 5.52981 0.122861 5.54474C0.119952 5.54911 0.117576 5.55371 0.114715 5.55812C0.104727 5.57374 0.0949333 5.58949 0.0861091 5.60593C0.0844121 5.60918 0.0830061 5.61262 0.0813091 5.61587C0.0721455 5.63366 0.0633212 5.6517 0.0556121 5.67032C0.0546424 5.6726 0.0539636 5.67502 0.0530424 5.67735C0.0451394 5.69694 0.0378182 5.71677 0.0316121 5.73718C0.0307879 5.73975 0.0303515 5.74242 0.0296242 5.74503C0.0237576 5.76506 0.0183758 5.78528 0.0142545 5.80598C0.0130424 5.81214 0.0125091 5.81849 0.0113939 5.82469C0.00838788 5.84186 0.00538182 5.85902 0.00368485 5.87652C0.00121212 5.90052 0 5.92477 0 5.94911C0 5.97345 0.00121212 5.99769 0.00368485 6.02174C0.00538182 6.03948 0.00848485 6.05679 0.0114424 6.0741C0.0125091 6.08011 0.0130424 6.08627 0.0142545 6.09223C0.0184242 6.11313 0.0237576 6.13354 0.0296727 6.15376C0.0304 6.15614 0.0308364 6.15866 0.0315636 6.16103C0.0378182 6.18154 0.0451394 6.20157 0.0531394 6.22135C0.0540121 6.22348 0.0546424 6.22576 0.0555636 6.22789C0.0633212 6.24666 0.0721939 6.26479 0.0814545 6.28268C0.0830545 6.28583 0.0844121 6.28913 0.0860606 6.29228C0.0949818 6.30882 0.104824 6.32472 0.114958 6.34048C0.117673 6.34474 0.12 6.34925 0.122812 6.35342C0.132848 6.3684 0.143855 6.38266 0.154909 6.39681C0.158448 6.40137 0.1616 6.40617 0.165236 6.41063C0.180412 6.42901 0.196315 6.44666 0.213139 6.46348L2.39481 8.64515C2.53682 8.78722 2.72296 8.8582 2.90909 8.8582C3.09522 8.8582 3.28136 8.78722 3.42332 8.64515C3.70735 8.36113 3.70735 7.90067 3.42332 7.61665L2.48305 6.67638Z" fill="white"/>
<path d="M10.0509 0C8.06573 0 6.21875 0.984824 5.11014 2.63433C4.88614 2.96766 4.97477 3.41954 5.30811 3.64359C5.64149 3.86759 6.09332 3.77905 6.31742 3.44562C7.15528 2.19884 8.55097 1.4545 10.0509 1.4545C12.5292 1.45455 14.5455 3.47079 14.5455 5.94914C14.5455 8.42749 12.5292 10.4437 10.0509 10.4437C8.55538 10.4437 7.16197 9.70274 6.32348 8.46163C6.09856 8.12878 5.64658 8.04131 5.31368 8.26613C4.98088 8.49101 4.89332 8.94308 5.11819 9.27588C6.22757 10.918 8.07155 11.8983 10.0509 11.8983C13.3312 11.8983 16 9.22953 16 5.94914C16 2.66875 13.3312 0 10.0509 0Z" fill="white"/>
</svg>
