<svg width="20" height="20" viewBox="0 0 20 20" fill="none" xmlns="http://www.w3.org/2000/svg">
<path fill-rule="evenodd" clip-rule="evenodd" d="M16.7204 12.101C16.2934 12.5133 16.0994 13.1076 16.1994 13.6905L16.8444 17.42C17.0454 18.581 16.1154 19.5238 15.0604 19.5238C14.7824 19.5238 14.4954 19.4581 14.2174 19.3133L10.8424 17.5524C10.5784 17.4152 10.2894 17.3467 9.99936 17.3467C9.71036 17.3467 9.42136 17.4152 9.15736 17.5524L5.78236 19.3133C5.50435 19.4581 5.21735 19.5238 4.93935 19.5238C3.88435 19.5238 2.95435 18.581 3.15535 17.42L3.80035 13.6905C3.90035 13.1076 3.70635 12.5133 3.27935 12.101L0.548351 9.46C-0.52565 8.42096 0.0673533 6.61049 1.55135 6.3962L5.32535 5.85239C5.91536 5.76763 6.42536 5.40001 6.68836 4.86954L8.37636 1.47714C8.70836 0.809525 9.35436 0.476196 9.99936 0.476196C10.6454 0.476196 11.2914 0.809525 11.6234 1.47714L13.3114 4.86954C13.5744 5.40001 14.0844 5.76763 14.6744 5.85239L18.4484 6.3962C19.9324 6.61049 20.5254 8.42096 19.4514 9.46L16.7204 12.101Z" fill="black"/>
</svg>
