<svg width="17" height="16" viewBox="0 0 17 16" fill="none" xmlns="http://www.w3.org/2000/svg">
<path d="M8.00698 1.21066L10.155 5.66516L15.0395 6.39116L11.502 9.91966L11.621 10.6277L12.3285 14.8492L8.00648 12.5247L3.68498 14.8507L4.39248 10.6287L4.51098 9.92066L0.974479 6.39116L5.85848 5.66516L6.17948 5.00066L8.00698 1.21066ZM8.00648 0.243164C7.55848 0.243164 7.15048 0.495664 6.95998 0.891164L5.14898 4.65116L0.981479 5.27066C0.553479 5.33466 0.197979 5.62716 0.059979 6.02666C-0.078021 6.42766 0.026479 6.86866 0.328479 7.16966L3.38148 10.2197L2.67298 14.4487C2.60148 14.8747 2.78598 15.3022 3.14748 15.5517C3.34598 15.6882 3.57948 15.7572 3.81348 15.7572C4.00598 15.7572 4.19848 15.7107 4.37298 15.6167L8.00598 13.6607L11.639 15.6167C11.8135 15.7102 12.0065 15.7572 12.198 15.7572C12.432 15.7572 12.665 15.6882 12.8645 15.5517C13.2255 15.3027 13.41 14.8752 13.338 14.4487L12.6295 10.2197L15.6845 7.16966C15.987 6.86916 16.0905 6.42716 15.9525 6.02666C15.8145 5.62616 15.4585 5.33416 15.031 5.27066L10.8645 4.65116L9.05248 0.891164C8.86348 0.495664 8.45498 0.243664 8.00598 0.243664L8.00648 0.243164Z" fill="white"/>
</svg>
